<svg width="21" height="21" viewBox="0 0 21 21" fill="none" xmlns="http://www.w3.org/2000/svg">
<path d="M5.64137 0.949951H3.74137C1.55137 0.949951 0.401367 2.09995 0.401367 4.27995V6.17995C0.401367 8.35995 1.55137 9.50995 3.73137 9.50995H5.63137C7.81137 9.50995 8.96137 8.35995 8.96137 6.17995V4.27995C8.97137 2.09995 7.82137 0.949951 5.64137 0.949951Z" fill="#0085FF"/>
<path opacity="0.6" d="M17.0713 0.949951H15.1713C12.9913 0.949951 11.8413 2.09995 11.8413 4.27995V6.17995C11.8413 8.35995 12.9913 9.50995 15.1713 9.50995H17.0713C19.2513 9.50995 20.4013 8.35995 20.4013 6.17995V4.27995C20.4013 2.09995 19.2513 0.949951 17.0713 0.949951Z" fill="#0085FF"/>
<path d="M17.0713 12.3799H15.1713C12.9913 12.3799 11.8413 13.5299 11.8413 15.7099V17.6099C11.8413 19.7899 12.9913 20.9399 15.1713 20.9399H17.0713C19.2513 20.9399 20.4013 19.7899 20.4013 17.6099V15.7099C20.4013 13.5299 19.2513 12.3799 17.0713 12.3799Z" fill="#0085FF"/>
<path opacity="0.6" d="M5.64137 12.3799H3.74137C1.55137 12.3799 0.401367 13.5299 0.401367 15.7099V17.6099C0.401367 19.7999 1.55137 20.9499 3.73137 20.9499H5.63137C7.81137 20.9499 8.96137 19.7999 8.96137 17.6199V15.7199C8.97137 13.5299 7.82137 12.3799 5.64137 12.3799Z" fill="#0085FF"/>
</svg>
