<svg width="25" height="24" viewBox="0 0 25 24" fill="none" xmlns="http://www.w3.org/2000/svg">
<path d="M11.9038 21.75C6.25381 21.75 1.65381 17.15 1.65381 11.5C1.65381 5.85 6.25381 1.25 11.9038 1.25C17.5538 1.25 22.1538 5.85 22.1538 11.5C22.1538 17.15 17.5538 21.75 11.9038 21.75ZM11.9038 2.75C7.07381 2.75 3.15381 6.68 3.15381 11.5C3.15381 16.32 7.07381 20.25 11.9038 20.25C16.7338 20.25 20.6538 16.32 20.6538 11.5C20.6538 6.68 16.7338 2.75 11.9038 2.75Z" fill="#A1A2AF"/>
<path d="M22.4037 22.7499C22.2137 22.7499 22.0237 22.6799 21.8737 22.5299L19.8737 20.5299C19.7342 20.3888 19.656 20.1984 19.656 19.9999C19.656 19.8015 19.7342 19.6111 19.8737 19.4699C20.1637 19.1799 20.6437 19.1799 20.9337 19.4699L22.9337 21.4699C23.2237 21.7599 23.2237 22.2399 22.9337 22.5299C22.7837 22.6799 22.5937 22.7499 22.4037 22.7499Z" fill="#A1A2AF"/>
</svg>
